<?xml version="1.0" encoding="UTF-8" standalone="no"?><!DOCTYPE svg PUBLIC "-//W3C//DTD SVG 1.1//EN" "http://www.w3.org/Graphics/SVG/1.1/DTD/svg11.dtd"><svg width="100%" height="100%" viewBox="0 0 304 359" version="1.1" xmlns="http://www.w3.org/2000/svg" xmlns:xlink="http://www.w3.org/1999/xlink" xml:space="preserve" xmlns:serif="http://www.serif.com/" style="fill-rule:evenodd;clip-rule:evenodd;stroke-linecap:round;stroke-linejoin:round;stroke-miterlimit:1.5;"><path d="M3.5,298c0,0 106.326,-58.024 253,-265.5" style="fill:none;stroke:#000;stroke-width:3px;"/><path d="M4,314.5c0,0 144.637,-95.167 259.5,-271.5" style="fill:none;stroke:#000;stroke-width:3px;"/><path d="M3.5,329.5c0,0 152.137,-100.667 267,-277" style="fill:none;stroke:#000;stroke-width:3px;"/><path d="M3.5,343.5c0,0 160.137,-105.667 275,-282" style="fill:none;stroke:#000;stroke-width:3px;"/><path d="M263.885,19.091l0.423,-1.091l-2.115,1.182l-1.615,2.364l-1.077,1.773l-6.462,1.773l-0.538,0.591l0.538,0.591l4.846,0l-0.538,1.182l-1.077,1.182l-2.692,1.182l3.769,0l0.538,-0.591l2.692,1.773l1.077,0l-1.615,-2.955l0.538,-1.773l5.923,0l-3.231,-2.364l-0.538,-1.182l0.538,-1.773l0.577,-1.182l0.038,-0.682Z" style="stroke:#000;stroke-width:0.5px;"/><path d="M271.385,29.091l0.423,-1.091l-2.115,1.182l-1.615,2.364l-1.077,1.773l-6.462,1.773l-0.538,0.591l0.538,0.591l4.846,0l-0.538,1.182l-1.077,1.182l-2.692,1.182l3.769,0l0.538,-0.591l2.692,1.773l1.077,0l-1.615,-2.955l0.538,-1.773l5.923,0l-3.231,-2.364l-0.538,-1.182l0.538,-1.773l0.577,-1.182l0.038,-0.682Z" style="stroke:#000;stroke-width:0.5px;"/><path d="M278.385,38.591l0.423,-1.091l-2.115,1.182l-1.615,2.364l-1.077,1.773l-6.462,1.773l-0.538,0.591l0.538,0.591l4.846,0l-0.538,1.182l-1.077,1.182l-2.692,1.182l3.769,0l0.538,-0.591l2.692,1.773l1.077,0l-1.615,-2.955l0.538,-1.773l5.923,0l-3.231,-2.364l-0.538,-1.182l0.538,-1.773l0.577,-1.182l0.038,-0.682Z" style="stroke:#000;stroke-width:0.5px;"/><path d="M286.385,48.091l0.423,-1.091l-2.115,1.182l-1.615,2.364l-1.077,1.773l-6.462,1.773l-0.538,0.591l0.538,0.591l4.846,0l-0.538,1.182l-1.077,1.182l-2.692,1.182l3.769,0l0.538,-0.591l2.692,1.773l1.077,0l-1.615,-2.955l0.538,-1.773l5.923,0l-3.231,-2.364l-0.538,-1.182l0.538,-1.773l0.577,-1.182l0.038,-0.682Z" style="stroke:#000;stroke-width:0.5px;"/></svg>